Coordinates
version=1
nRows=32
nColumns=18
inDegrees=yes

Units are S.I. units (second, meters, Newtons, ...)
If the header above contains a line with 'inDegrees', this indicates whether rotational values are in degrees (yes) or radians (no).

endheader
time	ground_thorax_rot_x	ground_thorax_rot_y	ground_thorax_rot_z	ground_thorax_tx	ground_thorax_ty	ground_thorax_tz	clav_prot	clav_elev	scapula_abduction	scapula_elevation	scapula_upward_rot	scapula_winging	plane_elv	shoulder_elv	axial_rot	elbow_flexion	pro_sup
      2.56000000	     -2.92904700	    -15.28917226	    -26.07055329	      0.00078536	     -0.01638511	      0.04269923	    -22.99473661	    -14.07920668	    -19.28172792	     -9.34689061	      5.16157080	     34.35178301	     -7.92108591	     33.69264538	     -0.61451942	      0.00156114	     63.92270238
      2.58000000	     -2.62488637	    -15.04569874	    -25.52996308	     -0.00065007	     -0.01597170	      0.04282075	    -22.90665404	    -14.38898516	    -18.96948626	     -9.60353760	      5.28211173	     34.42958965	     -6.92134155	     33.91795047	     -0.71018799	      0.00156114	     63.92270238
      2.60000000	     -2.22572405	    -14.55294384	    -25.22980825	     -0.00216748	     -0.01633084	      0.04294116	    -23.09403071	    -14.42356162	    -19.34460274	     -9.58404873	      5.06832592	     34.53962272	     -4.92437243	     34.77217391	     -3.30050161	      0.00156114	     63.92270238
      2.62000000	     -1.95490914	    -14.24758027	    -24.78383224	     -0.00339276	     -0.01603092	      0.04297429	    -22.98809680	    -14.69799979	    -19.01613925	     -9.81470510	      5.19374734	     34.59950417	     -3.98233892	     35.04695152	     -3.43179392	      0.00156114	     63.92270238
      2.64000000	     -1.70484169	    -13.82577256	    -24.58847806	     -0.00477939	     -0.01652159	      0.04305877	    -23.01067978	    -14.72269384	    -19.08542583	     -9.81128361	      5.10540316	     34.63368168	     -2.19839233	     35.83295477	     -6.33195351	      0.00156114	     63.92270238
      2.66000000	     -1.47589214	    -13.43505696	    -24.29222908	     -0.00594282	     -0.01663120	      0.04306798	    -22.97389556	    -14.84247224	    -18.96462819	     -9.90809403	      5.14332027	     34.66658144	     -0.93012402	     36.33457939	     -7.66347838	      0.00156114	     63.92270238
      2.68000000	     -1.26323673	    -13.04563259	    -23.89816111	     -0.00695091	     -0.01637517	      0.04295706	    -22.88166570	    -15.04594664	    -18.69329071	    -10.08174790	      5.24992973	     34.70690120	     -0.11689195	     36.62054940	     -7.68958944	      0.00156114	     63.92270238
      2.70000000	     -1.05660226	    -12.58483419	    -23.70847613	     -0.00807083	     -0.01676778	      0.04292752	    -22.93974161	    -15.01983501	    -18.77563336	    -10.07291113	      5.27738389	     34.70687881	      1.36112634	     37.24053494	    -10.04864324	      0.00156114	     63.92270238
      2.72000000	     -0.97502176	    -12.27927010	    -23.21657508	     -0.00894412	     -0.01639225	      0.04291957	    -22.79351023	    -15.17197853	    -18.47073442	    -10.19158301	      5.33197814	     34.72065448	      2.05120685	     37.38253820	     -9.89186746	      0.00156114	     63.92270238
      2.74000000	     -0.73242815	    -11.69598705	    -23.16547261	     -0.01002986	     -0.01682984	      0.04261689	    -22.92274191	    -15.14759661	    -18.64004997	    -10.19720143	      5.39408618	     34.73492385	      3.40951030	     38.06569792	    -11.97410787	      0.00156114	     63.92270238
      2.76000000	     -0.67071835	    -11.41226318	    -22.71369403	     -0.01083813	     -0.01642167	      0.04255602	    -22.78371725	    -15.27191477	    -18.35907440	    -10.29431481	      5.44388971	     34.74017155	      4.02689230	     38.21227178	    -11.79520624	      0.00156114	     63.92270238
      2.78000000	     -0.52342825	    -10.91256271	    -22.66606450	     -0.01182597	     -0.01660668	      0.04214197	    -22.80024679	    -15.34004087	    -18.29287696	    -10.37777299	      5.56705673	     34.75138311	      4.99113297	     38.70122207	    -12.87736233	      0.00156114	     63.92270238
      2.80000000	     -0.48542161	    -10.59499833	    -22.48209832	     -0.01282853	     -0.01684751	      0.04200370	    -22.72629280	    -15.26548225	    -18.13922839	    -10.35458416	      5.70817402	     34.67042990	      6.03269088	     39.04925512	    -14.80695090	      0.00156114	     63.92270238
      2.82000000	     -0.43611672	    -10.33027952	    -22.07690097	     -0.01366406	     -0.01637884	      0.04182899	    -22.61415631	    -15.36745862	    -17.91478398	    -10.43265273	      5.74272976	     34.67707104	      6.49693089	     39.19099274	    -14.62596103	      0.00156114	     63.92270238
      2.84000000	     -0.40866928	     -9.95461284	    -21.89822200	     -0.01461515	     -0.01627711	      0.04139263	    -22.52913110	    -15.44770421	    -17.72028097	    -10.50547949	      5.81338418	     34.67520917	      7.08918121	     39.42837454	    -14.68317173	      0.00156114	     63.92270238
      2.86000000	     -0.36462354	     -9.72210725	    -21.52839769	     -0.01552067	     -0.01582040	      0.04121334	    -22.42655357	    -15.52517517	    -17.53068379	    -10.56052521	      5.82703843	     34.67809189	      7.51517421	     39.55937541	    -14.52395371	      0.00156114	     63.92270238
      2.88000000	     -0.29825352	     -9.35084568	    -21.62978063	     -0.01659816	     -0.01648856	      0.04098566	    -22.56345563	    -15.37164382	    -17.68757327	    -10.50697868	      6.03038303	     34.60993917	      8.71619622	     40.01932546	    -17.27701294	      0.00156114	     63.92270238
      2.90000000	     -0.27336213	     -9.16625963	    -21.30336716	     -0.01748550	     -0.01612275	      0.04077155	    -22.46532995	    -15.41825071	    -17.52595326	    -10.53482180	      6.02633052	     34.60363125	      9.07985156	     40.14293210	    -17.06258141	      0.00156114	     63.92270238
      2.92000000	     -0.38423546	     -9.08589432	    -21.30189033	     -0.01835348	     -0.01632811	      0.04075018	    -22.36118973	    -15.50155309	    -17.28534863	    -10.61675025	      6.12819932	     34.59220694	      9.87186777	     40.25597984	    -17.04126800	      0.00156114	     63.92270238
      2.94000000	     -0.35056931	     -8.92319944	    -21.01903365	     -0.01930831	     -0.01603322	      0.04053880	    -22.26995819	    -15.51656498	    -17.15503495	    -10.61747681	      6.10806588	     34.57678484	     10.19659408	     40.37688851	    -16.83927639	      0.00156114	     63.92270238
      2.96000000	     -0.31973754	     -8.78591346	    -20.77362286	     -0.02022739	     -0.01580709	      0.04034333	    -22.18493855	    -15.52019576	    -17.03758418	    -10.61056785	      6.08961112	     34.55765011	     10.51051067	     40.49353892	    -16.63788138	      0.00156114	     63.92270238
      2.98000000	     -0.30674337	     -8.71448053	    -20.95551667	     -0.02107027	     -0.01631516	      0.04043080	    -22.28731886	    -15.51556201	    -17.02348584	    -10.69439622	      6.40684915	     34.52528160	     11.40822128	     40.61732530	    -17.71161037	      0.00156114	     63.92270238
      3.00000000	     -0.28329631	     -8.60838273	    -20.76110840	     -0.02197598	     -0.01618640	      0.04027140	    -22.20725169	    -15.49652689	    -16.91767715	    -10.67332004	      6.39722805	     34.49575930	     11.69279191	     40.69729919	    -17.49148229	      0.00156114	     63.92270238
      3.02000000	     -0.25055736	     -8.57520068	    -20.62133647	     -0.02280516	     -0.01608929	      0.04025936	    -22.13855345	    -15.50404292	    -16.81421465	    -10.67446325	      6.39515511	     34.48002751	     11.99665551	     40.78853251	    -17.27434424	      0.00156114	     63.92270238
      3.04000000	     -0.22978023	     -8.62547877	    -20.65380697	     -0.02344658	     -0.01615341	      0.04042237	    -22.14964651	    -15.59102587	    -16.75232659	    -10.76060628	      6.47794406	     34.50715965	     12.42535716	     40.88517927	    -17.06182499	      0.00156114	     63.92270238
      3.06000000	     -0.23464927	     -8.59669133	    -20.55677355	     -0.02422370	     -0.01619272	      0.04035977	    -22.07628723	    -15.56825623	    -16.66073997	    -10.73586113	      6.46319101	     34.47872695	     12.69842106	     40.94405807	    -16.85284566	      0.00156114	     63.92270238
      3.08000000	     -0.18994508	     -8.65840631	    -20.52603298	     -0.02478022	     -0.01621972	      0.04049855	    -22.06452131	    -15.58924639	    -16.61378002	    -10.76097681	      6.50328003	     34.47746465	     12.97318194	     41.00986042	    -16.65714214	      0.00156114	     63.92270238
      3.10000000	     -0.20593495	     -8.65532747	    -20.48041088	     -0.02545053	     -0.01634414	      0.04046613	    -21.99461486	    -15.54839079	    -16.53336517	    -10.72361558	      6.49063432	     34.44139244	     13.22601581	     41.04933327	    -16.45071507	      0.00156114	     63.92270238
      3.12000000	     -0.13324693	     -8.71806008	    -20.49453566	     -0.02589754	     -0.01636327	      0.04062280	    -22.02110571	    -15.57641680	    -16.52624178	    -10.76279359	      6.55693870	     34.44930794	     13.42113360	     41.08801245	    -16.27876736	      0.00156114	     63.92270238
      3.14000000	     -0.15613163	     -8.74199233	    -20.49235619	     -0.02642392	     -0.01656911	      0.04060884	    -21.96180159	    -15.52044943	    -16.46648686	    -10.71534461	      6.54611562	     34.40908464	     13.64035846	     41.10825559	    -16.08157360	      0.00156114	     63.92270238
      3.16000000	     -0.06139536	     -8.76980782	    -20.49707449	     -0.02679687	     -0.01654100	      0.04070488	    -22.02534687	    -15.54055136	    -16.51036948	    -10.75401509	      6.62527801	     34.42153497	     13.68702835	     41.08910254	    -15.95933449	      0.00156114	     63.92270238
      3.18000000	     -0.02063236	     -8.70240451	    -20.47555563	     -0.02711487	     -0.01654136	      0.04069554	    -22.18307639	    -15.56062255	    -16.65994121	    -10.81395525	      6.76734397	     34.44890509	     13.68219966	     40.87615025	    -15.89374424	      0.00156114	     63.92270238
